<svg width="104.000000" height="32.000000" viewBox="0 0 104 32" fill="none" xmlns="http://www.w3.org/2000/svg"
     xmlns:xlink="http://www.w3.org/1999/xlink">
    <defs>
        <clipPath id="clip1_38926">
            <rect id="App Store" rx="2.614815" width="103.229630" height="31.229630"
                  transform="translate(0.385185 0.385185)" fill="white" fill-opacity="0"/>
        </clipPath>
    </defs>
    <rect id="App Store" rx="2.614815" width="103.229630" height="31.229630" transform="translate(0.385185 0.385185)"
          fill="#2D2D2F" fill-opacity="1.000000"/>
    <g clip-path="url(#clip1_38926)">
        <path id="Vector"
              d="M23.2 15.83C23.18 13.35 25.24 12.14 25.33 12.08C24.17 10.38 22.36 10.15 21.73 10.13C20.21 9.97 18.74 11.04 17.97 11.04C17.18 11.04 16 10.15 14.72 10.18C13.07 10.2 11.52 11.16 10.68 12.64C8.93 15.66 10.23 20.1 11.91 22.54C12.74 23.74 13.72 25.08 15 25.03C16.25 24.98 16.72 24.23 18.23 24.23C19.73 24.23 20.17 25.03 21.47 25C22.82 24.98 23.66 23.8 24.47 22.59C25.44 21.22 25.82 19.87 25.84 19.8C25.81 19.79 23.23 18.8 23.2 15.83Z"
              fill="#FFFFFF" fill-opacity="1.000000" fill-rule="nonzero"/>
        <path id="Vector"
              d="M20.74 8.53C21.41 7.69 21.87 6.54 21.75 5.38C20.77 5.42 19.55 6.05 18.85 6.87C18.23 7.6 17.67 8.79 17.82 9.91C18.91 9.99 20.04 9.36 20.74 8.53Z"
              fill="#FFFFFF" fill-opacity="1.000000" fill-rule="nonzero"/>
        <path id="Vector"
              d="M41.32 24.86L39.57 24.86L38.61 21.85L35.28 21.85L34.37 24.86L32.67 24.86L35.97 14.61L38 14.61L41.32 24.86ZM38.32 20.58L37.46 17.91C37.37 17.63 37.19 16.99 36.94 15.97L36.91 15.97C36.81 16.41 36.65 17.05 36.42 17.91L35.57 20.58L38.32 20.58Z"
              fill="#FFFFFF" fill-opacity="1.000000" fill-rule="nonzero"/>
        <path id="Vector"
              d="M49.81 21.07C49.81 22.33 49.47 23.32 48.79 24.05C48.18 24.7 47.43 25.02 46.52 25.02C45.55 25.02 44.85 24.67 44.42 23.98L44.39 23.98L44.39 27.87L42.75 27.87L42.75 19.9C42.75 19.11 42.73 18.3 42.69 17.46L44.13 17.46L44.23 18.64L44.26 18.64C44.8 17.75 45.64 17.31 46.75 17.31C47.62 17.31 48.35 17.66 48.93 18.35C49.52 19.04 49.81 19.94 49.81 21.07ZM48.14 21.13C48.14 20.41 47.97 19.82 47.65 19.35C47.29 18.86 46.82 18.62 46.22 18.62C45.81 18.62 45.45 18.76 45.12 19.02C44.79 19.29 44.57 19.64 44.47 20.08C44.42 20.28 44.39 20.45 44.39 20.58L44.39 21.81C44.39 22.35 44.56 22.81 44.89 23.18C45.22 23.55 45.65 23.73 46.17 23.73C46.79 23.73 47.27 23.49 47.62 23.02C47.96 22.54 48.14 21.91 48.14 21.13Z"
              fill="#FFFFFF" fill-opacity="1.000000" fill-rule="nonzero"/>
        <path id="Vector"
              d="M58.31 21.07C58.31 22.33 57.97 23.32 57.29 24.05C56.68 24.7 55.93 25.02 55.03 25.02C54.05 25.02 53.35 24.67 52.93 23.98L52.9 23.98L52.9 27.87L51.25 27.87L51.25 19.9C51.25 19.11 51.23 18.3 51.19 17.46L52.64 17.46L52.73 18.64L52.76 18.64C53.31 17.75 54.14 17.31 55.25 17.31C56.13 17.31 56.85 17.66 57.44 18.35C58.02 19.04 58.31 19.94 58.31 21.07ZM56.64 21.13C56.64 20.41 56.48 19.82 56.15 19.35C55.8 18.86 55.32 18.62 54.72 18.62C54.32 18.62 53.95 18.76 53.62 19.02C53.29 19.29 53.07 19.64 52.97 20.08C52.92 20.28 52.9 20.45 52.9 20.58L52.9 21.81C52.9 22.35 53.06 22.81 53.39 23.18C53.72 23.55 54.15 23.73 54.68 23.73C55.29 23.73 55.78 23.49 56.12 23.02C56.47 22.54 56.64 21.91 56.64 21.13Z"
              fill="#FFFFFF" fill-opacity="1.000000" fill-rule="nonzero"/>
        <path id="Vector"
              d="M67.82 21.98C67.82 22.85 67.51 23.56 66.91 24.11C66.24 24.71 65.31 25.01 64.11 25.01C63.01 25.01 62.13 24.8 61.46 24.37L61.84 23C62.56 23.44 63.35 23.66 64.21 23.66C64.83 23.66 65.31 23.52 65.66 23.24C66 22.96 66.17 22.58 66.17 22.12C66.17 21.7 66.03 21.35 65.75 21.07C65.47 20.78 64.99 20.52 64.33 20.27C62.54 19.6 61.64 18.62 61.64 17.33C61.64 16.49 61.96 15.8 62.59 15.26C63.21 14.72 64.05 14.46 65.1 14.46C66.03 14.46 66.8 14.62 67.42 14.94L67.01 16.28C66.43 15.97 65.78 15.81 65.05 15.81C64.47 15.81 64.02 15.95 63.7 16.24C63.42 16.49 63.29 16.8 63.29 17.16C63.29 17.57 63.44 17.9 63.76 18.17C64.03 18.41 64.53 18.67 65.25 18.96C66.13 19.31 66.78 19.73 67.2 20.2C67.61 20.68 67.82 21.27 67.82 21.98Z"
              fill="#FFFFFF" fill-opacity="1.000000" fill-rule="nonzero"/>
        <path id="Vector"
              d="M73.25 18.7L71.44 18.7L71.44 22.29C71.44 23.2 71.76 23.66 72.4 23.66C72.69 23.66 72.93 23.63 73.13 23.58L73.17 24.83C72.85 24.95 72.42 25.01 71.89 25.01C71.25 25.01 70.74 24.81 70.37 24.42C70.01 24.02 69.82 23.36 69.82 22.42L69.82 18.7L68.75 18.7L68.75 17.46L69.82 17.46L69.82 16.11L71.44 15.62L71.44 17.46L73.25 17.46L73.25 18.7Z"
              fill="#FFFFFF" fill-opacity="1.000000" fill-rule="nonzero"/>
        <path id="Vector"
              d="M81.42 21.1C81.42 22.24 81.09 23.17 80.44 23.9C79.76 24.65 78.86 25.02 77.73 25.02C76.65 25.02 75.79 24.66 75.14 23.95C74.5 23.23 74.18 22.32 74.18 21.22C74.18 20.08 74.51 19.14 75.17 18.41C75.84 17.68 76.73 17.31 77.86 17.31C78.94 17.31 79.81 17.67 80.47 18.39C81.1 19.09 81.42 19.99 81.42 21.1ZM79.71 21.15C79.71 20.47 79.57 19.89 79.27 19.4C78.93 18.81 78.43 18.51 77.8 18.51C77.14 18.51 76.64 18.81 76.29 19.4C76 19.89 75.85 20.48 75.85 21.18C75.85 21.87 76 22.45 76.29 22.94C76.65 23.53 77.14 23.82 77.78 23.82C78.41 23.82 78.9 23.52 79.26 22.92C79.56 22.43 79.71 21.83 79.71 21.15Z"
              fill="#FFFFFF" fill-opacity="1.000000" fill-rule="nonzero"/>
        <path id="Vector"
              d="M86.75 18.91C86.59 18.88 86.42 18.86 86.24 18.86C85.66 18.86 85.21 19.08 84.9 19.52C84.62 19.9 84.49 20.39 84.49 20.98L84.49 24.86L82.85 24.86L82.86 19.79C82.86 18.94 82.84 18.17 82.8 17.47L84.23 17.47L84.29 18.88L84.34 18.88C84.51 18.39 84.78 18 85.16 17.71C85.52 17.44 85.92 17.31 86.34 17.31C86.5 17.31 86.63 17.32 86.75 17.34L86.75 18.91Z"
              fill="#FFFFFF" fill-opacity="1.000000" fill-rule="nonzero"/>
        <path id="Vector"
              d="M94.1 20.81C94.1 21.11 94.08 21.35 94.04 21.56L89.11 21.56C89.13 22.29 89.37 22.85 89.83 23.23C90.24 23.57 90.78 23.75 91.44 23.75C92.17 23.75 92.83 23.63 93.43 23.4L93.69 24.54C92.99 24.84 92.17 24.99 91.21 24.99C90.07 24.99 89.17 24.66 88.51 23.98C87.86 23.31 87.53 22.4 87.53 21.27C87.53 20.15 87.83 19.23 88.44 18.48C89.08 17.69 89.94 17.3 91.03 17.3C92.09 17.3 92.9 17.69 93.45 18.48C93.88 19.11 94.1 19.89 94.1 20.81ZM92.53 20.39C92.55 19.9 92.44 19.48 92.22 19.12C91.93 18.67 91.49 18.44 90.91 18.44C90.37 18.44 89.93 18.66 89.6 19.11C89.33 19.46 89.16 19.89 89.11 20.38L92.53 20.38L92.53 20.39Z"
              fill="#FFFFFF" fill-opacity="1.000000" fill-rule="nonzero"/>
        <path id="Загрузите в"
              d="M33.41 5.87Q33.65 5.58 33.95 5.41Q34.02 5.37 34.1 5.34Q34.49 5.16 35.05 5.16Q35.83 5.16 36.26 5.5Q36.39 5.6 36.48 5.72Q36.7 6.02 36.7 6.49Q36.7 6.83 36.57 7.11Q36.54 7.19 36.49 7.26Q36.43 7.35 36.37 7.42Q36.16 7.63 35.84 7.72Q36.23 7.78 36.49 8L36.49 8Q36.57 8.07 36.64 8.15Q36.7 8.22 36.75 8.3Q36.94 8.61 36.94 9.03C36.94 9.28 36.89 9.51 36.8 9.71C36.7 9.92 36.56 10.1 36.39 10.25C36.22 10.39 36.02 10.5 35.78 10.58Q35.42 10.71 35.01 10.71C34.63 10.71 34.29 10.64 34 10.5C33.71 10.36 33.47 10.15 33.28 9.89L33.86 9.32Q34.03 9.56 34.26 9.71Q34.3 9.74 34.34 9.76Q34.62 9.92 35.01 9.92Q35.24 9.92 35.43 9.86C35.56 9.81 35.67 9.75 35.76 9.68C35.86 9.59 35.93 9.5 35.98 9.38C36.04 9.27 36.06 9.14 36.06 9Q36.06 8.79 35.98 8.62Q35.89 8.45 35.72 8.33Q35.39 8.07 34.77 8.07L34.28 8.07L34.28 7.36L34.74 7.36C35.1 7.36 35.38 7.29 35.57 7.16Q35.72 7.05 35.79 6.92Q35.87 6.77 35.87 6.58Q35.87 6.34 35.76 6.19Q35.71 6.12 35.64 6.07Q35.41 5.9 35.04 5.9Q34.68 5.9 34.4 6.03Q34.27 6.09 34.15 6.18Q34.03 6.28 33.94 6.41L33.41 5.87ZM38.96 10.75C38.77 10.75 38.58 10.72 38.41 10.65C38.25 10.59 38.11 10.5 37.98 10.38C37.87 10.27 37.77 10.14 37.7 9.98Q37.69 9.96 37.68 9.94Q37.6 9.73 37.6 9.48C37.6 9.29 37.64 9.12 37.72 8.97C37.8 8.81 37.92 8.68 38.07 8.57Q38.3 8.4 38.61 8.3Q38.92 8.21 39.3 8.21C39.49 8.21 39.68 8.23 39.86 8.27C40.05 8.3 40.22 8.34 40.36 8.4L40.36 8.12Q40.36 7.74 40.18 7.5L40.18 7.5Q40.15 7.46 40.11 7.43Q40.09 7.41 40.07 7.39Q39.82 7.17 39.38 7.17Q39.33 7.17 39.27 7.17Q39 7.19 38.74 7.29C38.53 7.37 38.32 7.48 38.1 7.63L37.84 7.09Q38.47 6.67 39.14 6.59Q39.3 6.57 39.46 6.57Q40.26 6.57 40.72 6.97Q40.74 6.98 40.75 6.99Q40.82 7.06 40.89 7.14Q41.21 7.55 41.21 8.21L41.21 9.67C41.21 9.85 41.29 9.94 41.43 9.94L41.43 10.67C41.35 10.68 41.28 10.69 41.22 10.7C41.16 10.7 41.11 10.71 41.05 10.71C40.89 10.71 40.76 10.67 40.66 10.58C40.58 10.5 40.52 10.4 40.5 10.27L40.48 10.01C40.3 10.25 40.08 10.43 39.81 10.56Q39.71 10.61 39.6 10.65Q39.3 10.75 38.96 10.75ZM48.15 10.75C47.82 10.75 47.54 10.67 47.29 10.51C47.04 10.36 46.85 10.16 46.71 9.91L46.71 12.31L45.86 12.31L45.86 6.64L46.61 6.64L46.61 7.36C46.76 7.12 46.96 6.93 47.2 6.79Q47.28 6.74 47.37 6.7Q47.67 6.57 48.03 6.57C48.31 6.57 48.56 6.63 48.79 6.74Q48.99 6.84 49.16 6.97Q49.28 7.07 49.39 7.19C49.56 7.38 49.69 7.61 49.79 7.86Q49.83 7.97 49.86 8.09Q49.93 8.36 49.93 8.65C49.93 8.94 49.89 9.22 49.8 9.47C49.72 9.73 49.59 9.95 49.43 10.14C49.27 10.32 49.08 10.47 48.86 10.58C48.65 10.69 48.41 10.75 48.15 10.75ZM54.83 7.06Q55.06 6.84 55.34 6.72Q55.37 6.71 55.41 6.69C55.62 6.61 55.85 6.57 56.09 6.57C56.27 6.57 56.44 6.59 56.58 6.64C56.74 6.69 56.87 6.75 56.98 6.84Q57.05 6.89 57.11 6.96Q57.19 7.04 57.24 7.16C57.3 7.28 57.33 7.42 57.33 7.58C57.33 7.81 57.27 8 57.15 8.17C57.03 8.32 56.86 8.42 56.65 8.45Q57.02 8.51 57.24 8.72L57.24 8.72Q57.29 8.76 57.32 8.8Q57.37 8.86 57.41 8.93L57.41 8.93Q57.56 9.17 57.56 9.51C57.56 9.69 57.52 9.86 57.45 10.01C57.37 10.16 57.27 10.29 57.14 10.41C57.01 10.51 56.85 10.6 56.66 10.66C56.48 10.72 56.27 10.75 56.05 10.75Q55.45 10.75 55.04 10.47Q54.85 10.34 54.7 10.16L55.13 9.6Q55.26 9.77 55.43 9.88Q55.68 10.03 56.02 10.03C56.25 10.03 56.43 9.98 56.55 9.88C56.68 9.78 56.75 9.63 56.75 9.44Q56.75 9.22 56.64 9.07Q56.43 8.77 55.78 8.77L55.5 8.77L55.5 8.21L55.78 8.21Q56.15 8.21 56.36 8.06Q56.47 7.98 56.52 7.87Q56.57 7.77 56.57 7.65C56.57 7.51 56.52 7.4 56.41 7.33C56.32 7.24 56.18 7.2 56.01 7.2C55.74 7.2 55.47 7.32 55.21 7.54L54.83 7.06ZM68.74 10.75C68.43 10.75 68.15 10.69 67.89 10.58Q67.55 10.44 67.3 10.2L67.3 10.2Q67.26 10.16 67.23 10.13C67.05 9.94 66.91 9.72 66.8 9.47C66.71 9.22 66.66 8.95 66.66 8.67Q66.66 8.31 66.76 7.99Q66.78 7.93 66.8 7.86C66.91 7.61 67.05 7.38 67.23 7.19Q67.31 7.11 67.4 7.03L67.4 7.03Q67.62 6.85 67.89 6.74C68.15 6.63 68.43 6.57 68.75 6.57C69.06 6.57 69.35 6.63 69.6 6.74C69.86 6.85 70.07 7 70.25 7.19C70.43 7.38 70.57 7.6 70.66 7.85Q70.71 7.97 70.74 8.08Q70.81 8.35 70.81 8.63C70.81 8.69 70.81 8.75 70.8 8.8C70.8 8.86 70.79 8.9 70.79 8.94L67.56 8.94C67.57 9.12 67.61 9.28 67.68 9.42C67.75 9.56 67.84 9.69 67.95 9.8C68.06 9.9 68.19 9.98 68.33 10.04C68.47 10.09 68.62 10.12 68.77 10.12C68.89 10.12 69 10.11 69.11 10.08C69.22 10.05 69.32 10.01 69.41 9.96Q69.54 9.89 69.63 9.79Q69.65 9.77 69.66 9.76C69.73 9.68 69.79 9.6 69.83 9.51L70.55 9.71C70.42 10.02 70.18 10.27 69.86 10.46C69.54 10.65 69.17 10.75 68.74 10.75ZM45.05 7.31L43.25 7.31L43.25 10.67L42.42 10.67L42.42 6.64L45.05 6.64L45.05 7.31ZM50.77 11.49C50.86 11.56 50.94 11.61 51.02 11.63Q51.15 11.67 51.27 11.67C51.4 11.67 51.52 11.6 51.62 11.45C51.73 11.3 51.83 11.04 51.93 10.67L50.27 6.64L51.15 6.64L52.39 9.92L53.5 6.64L54.3 6.64L52.63 11.21Q52.39 11.88 52.08 12.14C51.88 12.31 51.63 12.4 51.35 12.4C51.22 12.4 51.11 12.39 51.02 12.36C50.93 12.34 50.84 12.29 50.77 12.23L50.77 11.49ZM59.31 9.47L61.37 6.64L62.02 6.64L62.02 10.67L61.19 10.67L61.19 7.9L59.16 10.67L58.48 10.67L58.48 6.64L59.31 6.64L59.31 9.47ZM64.99 10.67L64.16 10.67L64.16 7.37L62.85 7.37L62.85 6.64L66.3 6.64L66.3 7.37L64.99 7.37L64.99 10.67ZM75.94 6.64C76.08 6.64 76.22 6.67 76.34 6.72C76.47 6.77 76.57 6.84 76.66 6.93C76.75 7.02 76.83 7.13 76.88 7.25C76.93 7.37 76.95 7.5 76.95 7.64C76.95 7.82 76.91 7.99 76.82 8.17C76.74 8.35 76.59 8.48 76.38 8.57C76.61 8.63 76.79 8.75 76.92 8.92Q76.93 8.94 76.94 8.95L76.94 8.95Q77.12 9.19 77.12 9.56C77.12 9.91 76.99 10.19 76.75 10.38C76.5 10.57 76.17 10.67 75.77 10.67L73.74 10.67L73.74 6.64L75.94 6.64ZM69.97 8.35C69.95 8.18 69.91 8.02 69.84 7.88C69.77 7.74 69.68 7.62 69.58 7.52C69.47 7.42 69.34 7.34 69.2 7.28C69.05 7.22 68.9 7.19 68.74 7.19C68.58 7.19 68.43 7.22 68.29 7.28C68.15 7.34 68.03 7.42 67.92 7.52C67.81 7.62 67.72 7.74 67.66 7.88C67.59 8.02 67.55 8.18 67.53 8.35L69.97 8.35ZM75.57 8.34C75.74 8.34 75.87 8.3 75.97 8.2Q75.99 8.18 76.01 8.16Q76.12 8.02 76.12 7.79C76.12 7.64 76.08 7.51 76 7.41C75.92 7.31 75.79 7.26 75.61 7.26L74.57 7.26L74.57 8.34L75.57 8.34ZM47.87 10.02C48.05 10.02 48.21 9.98 48.35 9.91C48.5 9.83 48.63 9.73 48.73 9.6C48.84 9.47 48.92 9.32 48.98 9.16Q49.02 9.05 49.04 8.93Q49.06 8.79 49.06 8.65C49.06 8.47 49.03 8.29 48.96 8.13C48.9 7.96 48.81 7.82 48.7 7.7C48.59 7.57 48.46 7.47 48.31 7.4C48.15 7.33 47.99 7.29 47.81 7.29C47.7 7.29 47.59 7.32 47.47 7.36C47.35 7.4 47.24 7.45 47.14 7.53C47.03 7.6 46.94 7.68 46.87 7.78C46.79 7.87 46.74 7.98 46.71 8.09L46.71 9.14C46.76 9.27 46.82 9.38 46.91 9.49C46.99 9.6 47.08 9.69 47.18 9.77C47.28 9.84 47.39 9.91 47.51 9.95Q47.63 10 47.76 10.02L47.76 10.02Q47.81 10.02 47.87 10.02ZM39.19 10.12C39.4 10.12 39.59 10.09 39.77 10.01C39.96 9.94 40.1 9.83 40.2 9.7C40.31 9.61 40.36 9.51 40.36 9.41L40.36 8.87C40.22 8.82 40.07 8.77 39.9 8.74C39.74 8.71 39.59 8.7 39.43 8.7Q38.98 8.7 38.68 8.9C38.49 9.03 38.4 9.2 38.4 9.41C38.4 9.61 38.47 9.78 38.62 9.92Q38.67 9.97 38.73 10Q38.93 10.12 39.19 10.12ZM75.69 10.05C75.87 10.05 76.01 10 76.11 9.88C76.22 9.77 76.28 9.63 76.28 9.47C76.28 9.31 76.23 9.17 76.12 9.06C76.02 8.95 75.89 8.89 75.71 8.89L74.57 8.89L74.57 10.05L75.69 10.05Z"
              fill="#FFFFFF" fill-opacity="1.000000" fill-rule="evenodd"/>
    </g>
</svg>
