<svg width="104.000000" height="32.000000" viewBox="0 0 104 32" fill="none" xmlns="http://www.w3.org/2000/svg"
     xmlns:xlink="http://www.w3.org/1999/xlink">
    <defs>
        <clipPath id="clip1_38922">
            <rect id="Google Play" rx="2.500000" width="103.000000" height="31.000000"
                  transform="translate(0.500000 0.500000)" fill="white" fill-opacity="0"/>
        </clipPath>
    </defs>
    <rect id="Google Play" rx="2.500000" width="103.000000" height="31.000000" transform="translate(0.500000 0.500000)"
          fill="#2D2D2F" fill-opacity="1.000000"/>
    <g clip-path="url(#clip1_38922)">
        <path id="Google Play"
              d="M62.41 14.24L63.73 14.24L63.73 21.18C63.73 21.42 63.79 21.6 63.91 21.74Q63.94 21.77 63.98 21.8Q64.15 21.93 64.41 21.93C64.5 21.93 64.6 21.91 64.71 21.88C64.83 21.85 64.94 21.81 65.05 21.77L65.24 22.8C65.05 22.89 64.82 22.96 64.56 23.01Q64.16 23.09 63.85 23.09C63.39 23.09 63.04 22.97 62.78 22.72Q62.75 22.68 62.71 22.65L62.71 22.65Q62.41 22.28 62.41 21.66L62.41 14.24ZM83.6 14.24L84.92 14.24L84.92 21.18C84.92 21.42 84.98 21.6 85.1 21.74Q85.13 21.77 85.17 21.8Q85.34 21.93 85.6 21.93C85.69 21.93 85.79 21.91 85.9 21.88C86.02 21.85 86.13 21.81 86.24 21.77L86.43 22.8C86.24 22.89 86.01 22.96 85.74 23.01Q85.35 23.09 85.04 23.09C84.58 23.09 84.22 22.97 83.97 22.72C83.72 22.47 83.6 22.12 83.6 21.66L83.6 14.24ZM37.92 21.94Q37.2 22.68 36.34 22.93L36.34 22.93Q35.91 23.06 35.44 23.06Q34.79 23.06 34.22 22.86L34.22 22.86Q34.03 22.79 33.85 22.71Q33.43 22.5 33.08 22.22L33.08 22.22Q32.81 22 32.58 21.75Q32.53 21.69 32.48 21.64L32.48 21.64Q32.01 21.08 31.73 20.36Q31.62 20.08 31.56 19.8L31.56 19.8Q31.43 19.26 31.43 18.7Q31.43 18.05 31.59 17.45L31.59 17.45Q31.65 17.25 31.73 17.06Q32 16.36 32.46 15.82L32.46 15.82Q32.52 15.75 32.58 15.69Q32.77 15.47 33 15.29Q33.39 14.98 33.86 14.76Q33.99 14.71 34.11 14.66L34.11 14.66Q34.75 14.42 35.48 14.42Q36.71 14.42 37.54 14.93Q38.03 15.24 38.39 15.66Q38.62 15.94 38.78 16.28L37.75 17.02Q37.48 16.47 37.04 16.14Q36.92 16.05 36.79 15.98Q36.58 15.85 36.35 15.77L36.35 15.77Q35.92 15.63 35.45 15.63Q34.97 15.63 34.56 15.79L34.56 15.79Q34.46 15.84 34.36 15.89Q34.12 16.01 33.92 16.17L33.92 16.17Q33.7 16.35 33.52 16.58Q33.17 17 32.98 17.56Q32.95 17.65 32.92 17.73L32.92 17.73Q32.8 18.22 32.8 18.74C32.8 19.17 32.86 19.57 33 19.95Q33.22 20.51 33.58 20.93Q33.75 21.13 33.95 21.29L33.95 21.29L33.95 21.29Q34.18 21.47 34.45 21.6Q34.57 21.66 34.69 21.7L34.69 21.7Q35.09 21.84 35.54 21.84Q35.81 21.84 36.07 21.79L36.07 21.79Q36.44 21.72 36.78 21.54Q37.38 21.24 37.92 20.6L37.92 19.68L36.13 19.68L36.13 18.69L39.05 18.69L39.05 23L37.92 23L37.92 21.94ZM76.28 23L76.28 14.48L79.85 14.48C80.24 14.48 80.59 14.56 80.91 14.72C81.24 14.88 81.52 15.09 81.75 15.35C81.98 15.61 82.16 15.9 82.29 16.24C82.42 16.57 82.49 16.9 82.49 17.25Q82.49 17.52 82.44 17.79Q82.39 18.04 82.3 18.29C82.18 18.62 82.01 18.92 81.78 19.18C81.56 19.44 81.29 19.64 80.97 19.8C80.66 19.95 80.31 20.03 79.92 20.03L77.62 20.03L77.62 23L76.28 23ZM77.62 18.84L79.84 18.84Q80.12 18.84 80.34 18.73Q80.34 18.73 80.35 18.73Q80.35 18.72 80.36 18.72C80.52 18.64 80.65 18.53 80.76 18.39C80.88 18.24 80.96 18.08 81.03 17.88C81.09 17.69 81.12 17.48 81.12 17.25Q81.12 16.89 81.02 16.6C80.94 16.41 80.84 16.24 80.72 16.11Q80.57 15.94 80.38 15.84L80.38 15.84Q80.33 15.81 80.27 15.78C80.11 15.7 79.94 15.66 79.77 15.66L77.62 15.66L77.62 18.84ZM43.23 23.12C42.74 23.12 42.29 23.03 41.89 22.85C41.5 22.68 41.16 22.44 40.88 22.14C40.6 21.85 40.38 21.5 40.23 21.11Q40.13 20.85 40.08 20.59L40.08 20.59L40.08 20.59Q40 20.23 40 19.86Q40 19.41 40.12 18.99L40.12 18.99Q40.16 18.8 40.23 18.63C40.38 18.23 40.6 17.88 40.88 17.58Q40.98 17.49 41.08 17.4L41.08 17.4Q41.44 17.08 41.9 16.87Q42.5 16.61 43.23 16.61Q43.96 16.61 44.55 16.87C44.95 17.05 45.29 17.29 45.57 17.58C45.86 17.88 46.08 18.23 46.23 18.63Q46.3 18.8 46.35 18.99L46.35 18.99Q46.46 19.41 46.46 19.86Q46.46 20.23 46.39 20.59Q46.33 20.85 46.23 21.11C46.08 21.5 45.86 21.85 45.57 22.14C45.29 22.44 44.95 22.68 44.55 22.85Q43.96 23.12 43.23 23.12ZM50.45 23.12C49.96 23.12 49.51 23.03 49.11 22.85Q48.61 22.63 48.23 22.28L48.23 22.28Q48.16 22.21 48.1 22.14C47.82 21.85 47.6 21.5 47.45 21.11Q47.35 20.85 47.3 20.59L47.3 20.59L47.3 20.59Q47.22 20.23 47.22 19.86Q47.22 19.41 47.33 18.99L47.33 18.99Q47.38 18.8 47.45 18.63C47.6 18.23 47.82 17.88 48.1 17.58Q48.19 17.49 48.3 17.4L48.3 17.4Q48.66 17.08 49.12 16.87Q49.72 16.61 50.45 16.61C50.94 16.61 51.38 16.7 51.77 16.87Q52.33 17.12 52.73 17.52L52.74 17.53Q52.76 17.55 52.79 17.58C53.08 17.88 53.3 18.23 53.45 18.63Q53.52 18.8 53.57 18.99L53.57 18.99Q53.68 19.41 53.68 19.86Q53.68 20.23 53.6 20.59Q53.55 20.85 53.45 21.11C53.3 21.5 53.08 21.85 52.79 22.14Q52.76 22.17 52.73 22.2L52.73 22.2Q52.33 22.6 51.77 22.85C51.38 23.03 50.94 23.12 50.45 23.12ZM57.33 23.06C56.91 23.06 56.52 22.97 56.17 22.8C55.82 22.63 55.51 22.39 55.26 22.1C55.01 21.8 54.81 21.46 54.67 21.08Q54.64 20.99 54.61 20.89Q54.47 20.4 54.47 19.86C54.47 19.42 54.54 19 54.68 18.6C54.83 18.2 55.03 17.86 55.28 17.57C55.54 17.28 55.84 17.04 56.19 16.87Q56.27 16.84 56.35 16.81Q56.82 16.61 57.38 16.61C57.89 16.61 58.33 16.73 58.7 16.97Q58.96 17.13 59.18 17.34Q59.45 17.59 59.65 17.91L59.65 16.72L60.81 16.72L60.81 22.82C60.81 23.27 60.73 23.68 60.56 24.03C60.39 24.38 60.16 24.68 59.85 24.92C59.56 25.16 59.21 25.35 58.8 25.48C58.39 25.61 57.95 25.67 57.48 25.67C56.78 25.67 56.2 25.55 55.74 25.31C55.28 25.08 54.9 24.75 54.59 24.33L55.33 23.63C55.57 23.97 55.88 24.22 56.25 24.4C56.64 24.58 57.05 24.66 57.48 24.66C57.75 24.66 58.01 24.63 58.25 24.56C58.49 24.48 58.71 24.37 58.89 24.22C59.08 24.07 59.22 23.88 59.33 23.64Q59.49 23.3 59.49 22.82L59.49 21.86C59.27 22.24 58.96 22.54 58.57 22.74C58.18 22.95 57.77 23.06 57.33 23.06ZM68.85 23.12C68.36 23.12 67.92 23.03 67.52 22.86C67.12 22.69 66.77 22.45 66.49 22.16C66.21 21.86 65.99 21.52 65.83 21.12Q65.79 21.02 65.76 20.92L65.76 20.92Q65.6 20.42 65.6 19.87Q65.6 19.33 65.76 18.83Q65.79 18.73 65.83 18.63C65.99 18.23 66.21 17.88 66.49 17.58C66.77 17.28 67.12 17.04 67.52 16.87C67.92 16.7 68.37 16.61 68.86 16.61C69.35 16.61 69.79 16.7 70.18 16.87Q70.74 17.12 71.15 17.52L71.15 17.53Q71.17 17.55 71.2 17.58C71.48 17.87 71.69 18.21 71.84 18.6Q71.91 18.78 71.96 18.97Q72.07 19.38 72.07 19.82C72.07 19.91 72.06 20 72.05 20.09C72.05 20.17 72.04 20.24 72.03 20.29L67 20.29C67.03 20.58 67.09 20.83 67.19 21.05Q67.36 21.39 67.61 21.64C67.79 21.8 67.99 21.92 68.2 22.01C68.43 22.1 68.66 22.14 68.9 22.14C69.07 22.14 69.25 22.12 69.41 22.08C69.59 22.04 69.75 21.97 69.89 21.89C70.04 21.8 70.17 21.7 70.28 21.58C70.39 21.46 70.48 21.33 70.54 21.18L71.67 21.51C71.45 21.98 71.09 22.37 70.59 22.67C70.09 22.97 69.51 23.12 68.85 23.12ZM88.86 23.12C88.56 23.12 88.27 23.07 88.01 22.97C87.75 22.87 87.53 22.73 87.34 22.55C87.15 22.38 87.01 22.17 86.89 21.93C86.79 21.69 86.74 21.43 86.74 21.15C86.74 20.85 86.8 20.58 86.93 20.34C87.06 20.1 87.24 19.9 87.47 19.72C87.71 19.54 87.99 19.41 88.31 19.31C88.64 19.21 89 19.17 89.39 19.17C89.69 19.17 89.98 19.2 90.27 19.25C90.55 19.3 90.81 19.37 91.05 19.45L91.05 19.02C91.05 18.56 90.91 18.2 90.65 17.94C90.39 17.68 90.01 17.55 89.51 17.55C89.17 17.55 88.84 17.61 88.51 17.74Q88.03 17.92 87.52 18.27L87.11 17.43Q88.1 16.76 89.15 16.64Q89.39 16.61 89.63 16.61C90.49 16.61 91.17 16.83 91.65 17.27C92.13 17.71 92.37 18.34 92.37 19.17L92.37 21.44C92.37 21.72 92.48 21.86 92.71 21.87L92.71 23C92.59 23.02 92.47 23.04 92.38 23.04C92.29 23.05 92.2 23.06 92.11 23.06C91.86 23.06 91.66 22.99 91.51 22.86C91.38 22.74 91.29 22.57 91.26 22.37L91.23 21.98C90.95 22.34 90.6 22.63 90.18 22.83C89.77 23.02 89.33 23.12 88.86 23.12ZM94.03 24.47C94.15 24.5 94.27 24.52 94.38 24.53C94.5 24.55 94.59 24.56 94.67 24.56C94.77 24.56 94.86 24.53 94.93 24.48C95.01 24.44 95.09 24.37 95.17 24.26C95.25 24.14 95.33 23.98 95.41 23.78C95.5 23.58 95.6 23.32 95.71 23L93.13 16.72L94.49 16.72L96.43 21.83L98.16 16.72L99.41 16.72L96.56 24.45C96.43 24.81 96.21 25.11 95.89 25.35C95.58 25.6 95.17 25.72 94.68 25.72C94.58 25.72 94.48 25.71 94.38 25.7C94.27 25.69 94.16 25.66 94.03 25.62L94.03 24.47ZM70.76 19.38C70.73 19.12 70.67 18.87 70.55 18.65C70.45 18.43 70.31 18.24 70.15 18.09C69.98 17.93 69.78 17.8 69.56 17.71Q69.46 17.68 69.36 17.65L69.36 17.65Q69.12 17.58 68.85 17.58Q68.58 17.58 68.34 17.65L68.34 17.65Q68.24 17.68 68.14 17.71C67.93 17.8 67.73 17.93 67.57 18.09C67.4 18.24 67.26 18.43 67.16 18.65C67.05 18.87 66.99 19.12 66.97 19.38L70.76 19.38ZM41.36 19.87C41.36 20.18 41.41 20.46 41.5 20.72C41.6 20.97 41.73 21.2 41.9 21.39C42.07 21.57 42.26 21.72 42.49 21.83Q42.59 21.88 42.69 21.91Q42.95 21.99 43.23 21.99C43.5 21.99 43.74 21.94 43.96 21.83C44.2 21.72 44.4 21.57 44.56 21.38C44.73 21.18 44.86 20.96 44.96 20.7Q45.1 20.32 45.1 19.86C45.1 19.57 45.06 19.29 44.96 19.04C44.86 18.77 44.73 18.54 44.56 18.35C44.4 18.16 44.2 18.01 43.96 17.91C43.74 17.79 43.5 17.74 43.23 17.74C42.98 17.74 42.73 17.79 42.5 17.91C42.28 18.02 42.08 18.17 41.91 18.36C41.74 18.56 41.61 18.78 41.5 19.05Q41.36 19.43 41.36 19.87ZM48.58 19.87C48.58 20.18 48.63 20.46 48.72 20.72C48.82 20.97 48.95 21.2 49.12 21.39C49.29 21.57 49.48 21.72 49.71 21.83C49.94 21.94 50.19 21.99 50.45 21.99C50.72 21.99 50.96 21.94 51.18 21.83C51.41 21.72 51.61 21.57 51.78 21.38C51.95 21.18 52.08 20.96 52.18 20.7C52.27 20.45 52.32 20.17 52.32 19.86C52.32 19.57 52.27 19.29 52.18 19.04C52.08 18.77 51.95 18.54 51.78 18.35C51.61 18.16 51.41 18.01 51.18 17.91C50.96 17.79 50.72 17.74 50.45 17.74C50.2 17.74 49.95 17.79 49.72 17.91C49.5 18.02 49.3 18.17 49.13 18.36C48.96 18.56 48.83 18.78 48.72 19.05C48.63 19.3 48.58 19.58 48.58 19.87ZM57.77 21.99C57.97 21.99 58.16 21.96 58.34 21.89C58.53 21.82 58.69 21.73 58.85 21.62Q59.09 21.44 59.25 21.22C59.37 21.07 59.45 20.91 59.49 20.74L59.49 19.1C59.41 18.9 59.31 18.71 59.18 18.56C59.05 18.39 58.91 18.24 58.74 18.12C58.58 18 58.41 17.91 58.22 17.85Q57.95 17.74 57.67 17.74L57.67 17.74Q57.31 17.74 57.01 17.87Q56.95 17.9 56.89 17.93C56.67 18.05 56.47 18.21 56.31 18.42C56.15 18.62 56.03 18.85 55.94 19.11Q55.88 19.28 55.85 19.46Q55.81 19.68 55.81 19.9Q55.81 20.29 55.93 20.64L55.93 20.64Q55.94 20.68 55.95 20.72C56.06 20.96 56.2 21.18 56.37 21.38C56.55 21.56 56.75 21.71 56.99 21.82Q57.06 21.85 57.14 21.88L57.14 21.88Q57.43 21.99 57.77 21.99ZM89.22 22.14C89.54 22.14 89.84 22.09 90.12 21.98C90.41 21.86 90.63 21.69 90.79 21.48C90.96 21.34 91.05 21.19 91.05 21.03L91.05 20.2C90.82 20.11 90.58 20.04 90.33 20C90.08 19.95 89.83 19.92 89.59 19.92C89.12 19.92 88.73 20.03 88.43 20.24C88.13 20.44 87.99 20.7 87.99 21.04C87.99 21.35 88.1 21.62 88.33 21.83C88.57 22.04 88.86 22.14 89.22 22.14Z"
              fill="#FFFFFF" fill-opacity="1.000000" fill-rule="evenodd"/>
        <path id="Vector"
              d="M7 24.63L7 7.37C7 6.76 7.35 6.24 7.85 6L17.84 15.99L7.85 26C7.59 25.87 7.38 25.67 7.23 25.43C7.07 25.19 6.99 24.91 7 24.63ZM21 19.17L10.09 25.48L18.7 16.86L21 19.17L21 19.17ZM24.4 14.79C24.58 14.93 24.73 15.11 24.84 15.32C24.94 15.52 25 15.75 25 15.99C25 16.22 24.95 16.45 24.85 16.66C24.75 16.87 24.6 17.05 24.41 17.19L22.09 18.53L19.56 16L22.09 13.46L24.4 14.79L24.4 14.79ZM10.09 6.52L21 12.82L18.7 15.13L10.09 6.52L10.09 6.52Z"
              fill="#FFFFFF" fill-opacity="1.000000" fill-rule="nonzero"/>
        <path id="ДОСТУПНО В"
              d="M38.7 11.03C38.4 11.03 38.12 10.97 37.87 10.85Q37.6 10.71 37.39 10.52Q37.3 10.44 37.22 10.36C37.04 10.16 36.9 9.92 36.8 9.66Q36.71 9.41 36.68 9.15Q36.66 9.01 36.66 8.86Q36.66 8.61 36.72 8.37Q36.75 8.21 36.82 8.05Q36.94 7.73 37.15 7.47L37.15 7.47Q37.19 7.41 37.24 7.36Q37.37 7.22 37.51 7.11Q37.69 6.98 37.89 6.88Q37.97 6.85 38.05 6.82Q38.36 6.7 38.71 6.7Q39.11 6.7 39.44 6.85L39.44 6.85Q39.49 6.87 39.54 6.9C39.79 7.02 40.01 7.18 40.18 7.39C40.36 7.59 40.5 7.82 40.6 8.08Q40.7 8.35 40.73 8.62Q40.75 8.74 40.75 8.87C40.75 9.15 40.69 9.43 40.59 9.69Q40.49 9.95 40.33 10.17Q40.25 10.28 40.16 10.38C39.98 10.57 39.76 10.73 39.51 10.85Q39.45 10.88 39.38 10.9L39.38 10.9Q39.07 11.03 38.7 11.03ZM64.03 11.03C63.72 11.03 63.44 10.97 63.19 10.85C62.94 10.72 62.73 10.56 62.55 10.36C62.37 10.16 62.23 9.92 62.13 9.66Q62.04 9.41 62 9.15Q61.99 9.01 61.99 8.86Q61.99 8.61 62.04 8.37Q62.08 8.21 62.14 8.05Q62.27 7.73 62.48 7.47Q62.52 7.41 62.57 7.36Q62.69 7.22 62.84 7.11L62.84 7.11Q63.01 6.98 63.22 6.88Q63.29 6.85 63.37 6.82L63.37 6.82L63.37 6.82Q63.68 6.7 64.04 6.7C64.34 6.7 64.62 6.77 64.87 6.9C65.12 7.02 65.33 7.18 65.51 7.39Q65.61 7.5 65.69 7.62Q65.83 7.84 65.92 8.08Q66.02 8.35 66.06 8.62L66.06 8.62Q66.07 8.74 66.07 8.87C66.07 9.15 66.02 9.43 65.92 9.69C65.82 9.95 65.67 10.18 65.49 10.38C65.31 10.57 65.09 10.73 64.84 10.85Q64.78 10.88 64.71 10.9L64.71 10.9Q64.39 11.03 64.03 11.03ZM41.23 8.83C41.23 8.58 41.27 8.32 41.36 8.07C41.46 7.82 41.59 7.59 41.77 7.39C41.95 7.18 42.16 7.02 42.42 6.9Q42.8 6.71 43.29 6.71Q43.87 6.71 44.29 6.97Q44.56 7.14 44.75 7.38L44.75 7.38Q44.84 7.5 44.91 7.64L44.38 7.99C44.32 7.87 44.25 7.76 44.17 7.67C44.08 7.58 43.99 7.51 43.89 7.46C43.79 7.41 43.69 7.37 43.58 7.35C43.47 7.33 43.37 7.32 43.27 7.32Q42.93 7.32 42.68 7.45C42.51 7.54 42.37 7.66 42.25 7.81C42.14 7.96 42.05 8.12 41.99 8.31Q41.91 8.58 41.91 8.86C41.91 9.07 41.94 9.26 42.01 9.45Q42.11 9.73 42.29 9.95Q42.39 10.06 42.5 10.15Q42.61 10.23 42.73 10.3Q42.78 10.33 42.84 10.35Q43.05 10.43 43.28 10.43C43.39 10.43 43.49 10.41 43.6 10.39C43.71 10.36 43.82 10.32 43.92 10.26Q43.97 10.23 44.02 10.2L44.02 10.2Q44.12 10.13 44.2 10.04C44.29 9.95 44.36 9.85 44.42 9.72L44.98 10.04C44.91 10.2 44.81 10.34 44.69 10.47C44.56 10.59 44.42 10.69 44.27 10.77C44.11 10.86 43.95 10.92 43.77 10.97Q43.51 11.03 43.26 11.03C42.96 11.03 42.69 10.97 42.44 10.84C42.19 10.71 41.98 10.55 41.8 10.34C41.62 10.13 41.48 9.9 41.38 9.64Q41.26 9.33 41.23 9.01Q41.23 8.92 41.23 8.83ZM32.1 10.4L32.2 10.4C32.32 10.39 32.43 10.36 32.52 10.29Q32.67 10.2 32.79 9.93Q32.91 9.66 32.99 9.18Q33.08 8.7 33.15 7.92L33.24 6.73L35.65 6.73L35.65 10.4L36.3 10.4L36.3 12.09L35.68 12.09L35.68 11L32.72 11L32.72 12.09L32.1 12.09L32.1 10.4ZM48.74 7.33L47.32 7.33L47.32 11L46.64 11L46.64 7.33L45.22 7.33L45.22 6.73L48.74 6.73L48.74 7.33ZM49.97 11.04C49.89 11.04 49.79 11.03 49.69 11.01C49.58 10.99 49.49 10.96 49.42 10.92L49.48 10.35C49.53 10.38 49.6 10.4 49.68 10.42C49.76 10.44 49.84 10.45 49.91 10.45C50.04 10.45 50.15 10.41 50.25 10.34Q50.39 10.23 50.52 9.91L48.97 6.73L49.69 6.73L50.83 9.2L51.91 6.73L52.61 6.73L51.11 9.97C51.03 10.17 50.94 10.33 50.86 10.47C50.78 10.6 50.69 10.71 50.6 10.8C50.51 10.88 50.41 10.94 50.31 10.98C50.21 11.02 50.1 11.04 49.97 11.04ZM53.21 6.73L56.67 6.73L56.67 11L55.99 11L55.99 7.33L53.89 7.33L53.89 11L53.21 11L53.21 6.73ZM61.21 6.73L61.21 11L60.53 11L60.53 9.12L58.39 9.12L58.39 11L57.71 11L57.71 6.73L58.39 6.73L58.39 8.52L60.53 8.52L60.53 6.73L61.21 6.73ZM71.63 9.9Q71.63 10.14 71.54 10.34Q71.53 10.34 71.53 10.35Q71.53 10.35 71.53 10.36C71.46 10.5 71.36 10.61 71.24 10.71C71.13 10.8 70.99 10.87 70.83 10.92C70.67 10.97 70.5 11 70.32 11L68.29 11L68.29 6.73L70.48 6.73Q70.67 6.73 70.83 6.8L70.83 6.8Q70.86 6.82 70.88 6.83C71 6.89 71.11 6.98 71.19 7.08Q71.2 7.09 71.21 7.1Q71.32 7.25 71.38 7.43C71.43 7.56 71.45 7.69 71.45 7.82Q71.45 7.95 71.43 8.07Q71.39 8.25 71.29 8.41C71.19 8.59 71.04 8.72 70.84 8.81C71.09 8.88 71.28 9.01 71.42 9.21C71.56 9.39 71.63 9.62 71.63 9.9ZM37.34 8.86Q37.34 9.03 37.37 9.2L37.37 9.2Q37.4 9.32 37.44 9.45C37.5 9.63 37.59 9.8 37.71 9.94C37.83 10.09 37.97 10.21 38.14 10.29Q38.15 10.3 38.16 10.3Q38.41 10.42 38.71 10.42Q39.03 10.42 39.28 10.29C39.44 10.2 39.59 10.08 39.7 9.93C39.82 9.78 39.91 9.61 39.97 9.43Q40.02 9.27 40.04 9.1L40.04 9.1Q40.06 8.99 40.06 8.86Q40.06 8.59 39.98 8.33Q39.97 8.31 39.96 8.28Q39.86 8 39.68 7.79L39.68 7.79Q39.61 7.7 39.53 7.63Q39.41 7.52 39.26 7.45Q39.23 7.43 39.19 7.42L39.19 7.42Q38.97 7.32 38.71 7.32Q38.39 7.32 38.15 7.44Q38.14 7.45 38.13 7.45C37.96 7.54 37.82 7.66 37.7 7.8C37.59 7.95 37.5 8.11 37.43 8.3Q37.38 8.46 37.36 8.63Q37.34 8.74 37.34 8.86ZM62.67 8.86C62.67 9.06 62.7 9.26 62.77 9.45C62.83 9.63 62.92 9.8 63.04 9.94C63.16 10.09 63.3 10.21 63.47 10.29Q63.48 10.3 63.49 10.3Q63.73 10.42 64.03 10.42C64.25 10.42 64.44 10.38 64.6 10.29C64.77 10.2 64.91 10.08 65.03 9.93C65.14 9.78 65.23 9.61 65.29 9.43C65.35 9.24 65.38 9.06 65.38 8.86C65.38 8.66 65.35 8.47 65.29 8.28Q65.19 8 65.01 7.79L65.01 7.79C64.89 7.65 64.75 7.53 64.58 7.45C64.42 7.36 64.24 7.32 64.03 7.32Q63.72 7.32 63.48 7.44Q63.47 7.45 63.46 7.45C63.29 7.54 63.15 7.66 63.03 7.8C62.91 7.95 62.82 8.11 62.76 8.3Q62.71 8.46 62.69 8.63L62.69 8.63Q62.67 8.74 62.67 8.86ZM68.96 7.32L68.96 8.57L70.19 8.57Q70.32 8.57 70.42 8.52C70.49 8.49 70.56 8.45 70.61 8.4Q70.64 8.37 70.67 8.33Q70.71 8.27 70.73 8.2C70.77 8.12 70.78 8.04 70.78 7.95C70.78 7.76 70.73 7.61 70.63 7.5Q70.55 7.41 70.45 7.36Q70.35 7.32 70.23 7.32L68.96 7.32ZM34.98 10.4L34.98 7.33L33.87 7.33L33.81 8.01C33.78 8.33 33.75 8.62 33.71 8.88Q33.66 9.25 33.58 9.55C33.53 9.74 33.47 9.91 33.4 10.05C33.34 10.19 33.27 10.31 33.19 10.4L34.98 10.4ZM70.94 9.77C70.94 9.68 70.93 9.6 70.9 9.52C70.87 9.44 70.83 9.37 70.78 9.31C70.73 9.25 70.67 9.2 70.6 9.16C70.52 9.13 70.45 9.11 70.36 9.11L68.96 9.11L68.96 10.41L70.32 10.41Q70.44 10.41 70.54 10.37L70.55 10.37Q70.56 10.37 70.57 10.37C70.64 10.33 70.71 10.28 70.76 10.23C70.82 10.17 70.86 10.1 70.9 10.02C70.93 9.94 70.94 9.86 70.94 9.77Z"
              fill="#FFFFFF" fill-opacity="1.000000" fill-rule="evenodd"/>
    </g>
</svg>
