<svg width="28.000000" height="28.000000" viewBox="0 0 28 28" fill="none" xmlns="http://www.w3.org/2000/svg"
     xmlns:xlink="http://www.w3.org/1999/xlink">
    <path id="Vk"
          d="M4.94 0C2.21 0 0 2.21 0 4.94L0 23.05C0 25.78 2.21 28 4.94 28L23.05 28C25.78 28 28 25.78 28 23.05L28 4.94C28 2.21 25.78 0 23.05 0L4.94 0ZM23.29 18.49C23.31 18.53 23.33 18.57 23.35 18.62C23.38 18.68 23.4 18.77 23.43 18.9C23.45 19.04 23.45 19.15 23.42 19.26C23.39 19.36 23.31 19.46 23.16 19.55C23.01 19.64 22.81 19.68 22.54 19.68L19.85 19.72C19.68 19.76 19.49 19.74 19.26 19.67C19.04 19.6 18.86 19.52 18.72 19.44L18.51 19.31C18.3 19.17 18.05 18.94 17.77 18.64C17.49 18.34 17.25 18.07 17.05 17.83C16.85 17.58 16.64 17.38 16.41 17.22C16.18 17.05 15.99 17 15.82 17.05C15.8 17.06 15.77 17.07 15.74 17.09C15.7 17.11 15.64 17.16 15.56 17.24C15.47 17.33 15.4 17.43 15.33 17.55C15.26 17.68 15.2 17.86 15.15 18.1C15.1 18.34 15.08 18.61 15.08 18.91C15.08 19.02 15.07 19.11 15.05 19.2C15.02 19.29 15 19.35 14.97 19.4L14.93 19.45C14.8 19.58 14.61 19.66 14.37 19.68L13.16 19.68C12.66 19.71 12.15 19.65 11.63 19.51C11.1 19.36 10.64 19.18 10.25 18.95C9.85 18.72 9.49 18.49 9.17 18.26C8.84 18.02 8.59 17.82 8.42 17.65L8.16 17.4C8.09 17.33 8 17.23 7.87 17.09C7.75 16.95 7.5 16.63 7.12 16.13C6.74 15.63 6.37 15.1 6.01 14.54C5.65 13.98 5.22 13.24 4.72 12.33C4.23 11.41 3.77 10.46 3.35 9.47C3.31 9.36 3.29 9.26 3.29 9.19C3.29 9.11 3.3 9.05 3.32 9.02L3.36 8.96C3.47 8.82 3.67 8.76 3.96 8.76L6.84 8.74C6.92 8.75 7 8.77 7.08 8.8C7.16 8.84 7.21 8.87 7.25 8.89L7.3 8.92C7.41 9 7.5 9.11 7.55 9.26C7.69 9.61 7.85 9.97 8.04 10.35C8.22 10.72 8.36 11.01 8.47 11.2L8.64 11.51C8.84 11.93 9.03 12.29 9.22 12.6C9.41 12.91 9.58 13.15 9.73 13.32C9.88 13.49 10.03 13.63 10.17 13.72C10.31 13.82 10.43 13.87 10.53 13.87C10.62 13.87 10.72 13.85 10.81 13.82C10.82 13.81 10.84 13.79 10.86 13.77C10.88 13.74 10.92 13.66 10.99 13.54C11.05 13.41 11.1 13.25 11.13 13.04C11.16 12.84 11.19 12.56 11.23 12.19C11.26 11.83 11.26 11.39 11.23 10.88C11.22 10.6 11.18 10.34 11.13 10.11C11.09 9.88 11.04 9.72 10.99 9.63L10.92 9.5C10.75 9.26 10.45 9.11 10.03 9.05C9.94 9.04 9.96 8.95 10.08 8.8C10.2 8.67 10.34 8.56 10.48 8.48C10.85 8.3 11.69 8.22 12.99 8.23C13.57 8.24 14.04 8.28 14.41 8.37C14.55 8.4 14.67 8.45 14.76 8.51C14.86 8.57 14.93 8.65 14.98 8.76C15.03 8.87 15.06 8.98 15.09 9.1C15.11 9.21 15.13 9.37 15.13 9.58C15.13 9.78 15.12 9.97 15.12 10.15C15.11 10.34 15.1 10.58 15.09 10.89C15.08 11.21 15.07 11.49 15.07 11.76C15.07 11.84 15.07 11.98 15.06 12.2C15.06 12.42 15.05 12.59 15.06 12.71C15.06 12.83 15.07 12.97 15.09 13.13C15.12 13.3 15.16 13.43 15.22 13.54C15.27 13.65 15.35 13.74 15.45 13.8C15.51 13.81 15.57 13.83 15.63 13.84C15.69 13.85 15.78 13.82 15.9 13.72C16.02 13.63 16.15 13.51 16.3 13.36C16.45 13.21 16.63 12.98 16.85 12.66C17.07 12.34 17.3 11.96 17.56 11.53C17.98 10.8 18.36 10.01 18.69 9.17C18.71 9.1 18.75 9.04 18.79 8.98C18.83 8.93 18.87 8.89 18.91 8.87L18.95 8.84L19 8.81L19.14 8.78C19.23 8.76 19.3 8.76 19.35 8.78L22.37 8.76C22.65 8.72 22.87 8.73 23.04 8.78C23.22 8.84 23.33 8.89 23.37 8.96L23.43 9.06C23.59 9.51 23.07 10.54 21.86 12.15C21.69 12.37 21.46 12.67 21.17 13.04C20.63 13.74 20.31 14.2 20.23 14.42C20.11 14.7 20.16 14.99 20.38 15.27C20.5 15.42 20.78 15.7 21.23 16.13L21.24 16.13L21.25 16.14L21.26 16.15L21.28 16.17C22.27 17.09 22.94 17.86 23.29 18.49Z"
          fill="#2967FF" fill-opacity="1.000000" fill-rule="evenodd"/>
</svg>
