<svg width="28.000000" height="28.000000" viewBox="0 0 28 28" fill="none" xmlns="http://www.w3.org/2000/svg"
     xmlns:xlink="http://www.w3.org/1999/xlink">
    <path id="Inst"
          d="M4.94 0C2.21 0 0 2.21 0 4.94L0 23.05C0 25.78 2.21 28 4.94 28L23.05 28C25.78 28 28 25.78 28 23.05L28 4.94C28 2.21 25.78 0 23.05 0L4.94 0ZM9.98 3.29L18.01 3.29C21.7 3.29 24.7 6.29 24.7 9.98L24.7 18.01C24.7 21.7 21.7 24.7 18.01 24.7L9.98 24.7C6.29 24.7 3.29 21.7 3.29 18.01L3.29 9.98C3.29 6.29 6.29 3.29 9.98 3.29ZM18.01 22.69C20.59 22.69 22.69 20.59 22.69 18.01L22.69 9.98C22.69 7.4 20.59 5.3 18.01 5.3L9.98 5.3C7.4 5.3 5.3 7.4 5.3 9.98L5.3 18.01C5.3 20.59 7.4 22.69 9.98 22.69L18.01 22.69ZM8.64 14C8.64 11.04 11.04 8.64 14 8.64C16.95 8.64 19.35 11.04 19.35 14C19.35 16.95 16.95 19.35 14 19.35C11.04 19.35 8.64 16.95 8.64 14ZM10.65 14C10.65 15.84 12.15 17.34 14 17.34C15.84 17.34 17.34 15.84 17.34 14C17.34 12.15 15.84 10.65 14 10.65C12.15 10.65 10.65 12.15 10.65 14ZM19.75 8.95C20.14 8.95 20.46 8.63 20.46 8.24C20.46 7.85 20.14 7.53 19.75 7.53C19.36 7.53 19.04 7.85 19.04 8.24C19.04 8.63 19.36 8.95 19.75 8.95Z"
          fill="#2967FF" fill-opacity="1.000000" fill-rule="evenodd"/>
</svg>
