<svg xmlns="http://www.w3.org/2000/svg" xmlns:xlink="http://www.w3.org/1999/xlink" enable-background="new 0 0 128 128"
     id="Слой_1" version="1.1" viewBox="0 0 128 128" xml:space="preserve"><g><circle cx="64" cy="64" fill="#EFEFEF" r="62"/><g><g><path d="M38.2,27.6l-7-2.6c-1-0.4-2,0.1-2.4,1.1l-17.9,49c-0.4,1,0.1,2,1.1,2.4l7,2.6c1,0.4,2-0.1,2.4-1.1     l17.9-49C39.6,29,39.1,28,38.2,27.6z" fill="#938993"/></g>
    <path d="M10.9,75.2c-0.4,1,0.1,2,1.1,2.4l7,2.6c1,0.4,2-0.1,2.4-1.1l7.3-20.1H16.8L10.9,75.2z" fill="#593055"
          opacity="0.2"/>
    <g><path d="M38.6,26.4l-7-2.6c-0.3-0.1-0.7-0.2-1.1-0.2c-1.3,0-2.5,0.8-2.9,2l-17.9,49c-0.6,1.6,0.2,3.4,1.9,4l7,2.6     c0.3,0.1,0.7,0.2,1.1,0.2c1.3,0,2.5-0.8,2.9-2l17.9-49c0.3-0.8,0.2-1.6-0.1-2.4C40,27.3,39.4,26.7,38.6,26.4z M38.1,29.6     l-17.9,49c-0.1,0.4-0.5,0.5-0.8,0.4l-7-2.6c-0.3-0.1-0.5-0.5-0.4-0.8l17.9-49c0.1-0.3,0.4-0.4,0.6-0.4c0.1,0,0.1,0,0.2,0l7,2.6     c0.2,0.1,0.3,0.2,0.3,0.3S38.2,29.4,38.1,29.6z" fill="#62355C"/></g>
    <path d="M59.2,26.2c-0.4-1-1.4-1.5-2.4-1.1l-7,2.6c-1,0.4-1.5,1.4-1.1,2.4l17.9,49c0.4,1,1.4,1.5,2.4,1.1l7-2.6    c1-0.4,1.5-1.4,1.1-2.4L59.2,26.2z"
          fill="#938993"/>
    <path d="M71.2,58.9H59.3L66.6,79c0.4,1,1.4,1.5,2.4,1.1l7-2.6c1-0.4,1.5-1.4,1.1-2.4L71.2,58.9z" fill="#593055"
          opacity="0.2"/>
    <path d="M60.4,25.8c-0.4-1.2-1.6-2-2.9-2c-0.4,0-0.7,0.1-1.1,0.2l-7,2.6c-1.6,0.6-2.4,2.4-1.9,4l17.9,49    c0.4,1.2,1.6,2,2.9,2c0.4,0,0.7-0.1,1.1-0.2l7-2.6c1.6-0.6,2.4-2.4,1.9-4L60.4,25.8z M75.6,76.4l-7,2.6c-0.3,0.1-0.6,0-0.8-0.4    l-17.9-49c-0.1-0.3,0-0.7,0.4-0.8l7-2.6c0.1,0,0.1,0,0.2,0c0.2,0,0.5,0.1,0.6,0.4l17.9,49C76,75.9,75.9,76.3,75.6,76.4z"
          fill="#62355C"/>
    <g><path d="M100.8,84.8c1.7,0,3.2-1.4,3.2-3.2v-9.5c0-1.7-1.4-3.2-3.2-3.2H2.2c1.1,13.6,6.5,25.9,14.9,35.6v-6.5     c0-1.7,1.4-3.2,3.2-3.2s3.2,1.4,3.2,3.2v12.8c5.1,4.4,11,8,17.4,10.6V98.1c0-1.7,1.4-3.2,3.2-3.2s3.2,1.4,3.2,3.2v25.6     c5.4,1.5,11,2.3,16.8,2.3c0.2,0,0.4,0,0.5,0V98.1c0-1.7,1.4-3.2,3.2-3.2s3.2,1.4,3.2,3.2v27.5c7.3-0.8,14.2-2.9,20.5-6l4.8-34.8     H100.8z" fill="#65C5B4"/></g>
    <path d="M100.8,84.8c1.7,0,3.2-1.4,3.2-3.2v-9.5c0-1.7-1.4-3.2-3.2-3.2h-7.9c1.7,0,3.2,1.4,3.2,3.2    v9.5c0,1.7-1.4,3.2-3.2,3.2h-1.8h-2.9H5.6c1,2.7,2.1,5.4,3.5,7.9h78.2L83,123c2.9-0.9,5.7-2,8.3-3.4l4.8-34.8H100.8z"
          fill="#593055" opacity="0.2"/>
    <g><circle cx="15.5" cy="77.9" fill="#4D4F51" r="3.2"/></g>
    <path d="M73.3,74.8c-2.4-0.6-4.4,1.5-3.8,3.8c0.3,1.1,1.2,2,2.3,2.3c2.4,0.6,4.4-1.5,3.8-3.8    C75.3,76,74.4,75.1,73.3,74.8z"
          fill="#4D4F51"/>
    <g><path d="M15.5,73.5c-2.4,0-4.4,2-4.4,4.4s2,4.4,4.4,4.4s4.4-2,4.4-4.4S17.9,73.5,15.5,73.5z M15.5,79.8     c-1.1,0-1.9-0.9-1.9-1.9c0-1.1,0.9-1.9,1.9-1.9c1.1,0,1.9,0.9,1.9,1.9C17.4,78.9,16.6,79.8,15.5,79.8z" fill="#62355C"/></g>
    <path d="M73.6,73.6c-1.7-0.4-3.5,0.2-4.5,1.6c-0.8,1.1-1.1,2.5-0.8,3.8c0.4,1.6,1.6,2.8,3.2,3.2    c0.4,0.1,0.7,0.1,1.1,0.1c1.4,0,2.6-0.6,3.5-1.7c0.8-1.1,1.1-2.5,0.8-3.8C76.4,75.2,75.1,74,73.6,73.6z M74,79.1    c-0.5,0.6-1.2,0.9-2,0.7c-0.7-0.2-1.2-0.7-1.4-1.4c-0.1-0.6,0-1.2,0.3-1.7c0.4-0.5,0.9-0.7,1.5-0.7c0.2,0,0.3,0,0.5,0.1    c0.7,0.2,1.2,0.7,1.4,1.4C74.5,78,74.3,78.6,74,79.1z"
          fill="#62355C"/></g><g><path d="M67.7,93.7c-2.4,0-4.4,2-4.4,4.4V126c0.2,0,0.5,0,0.7,0c0.6,0,1.2,0,1.8,0V98.1c0-1.1,0.9-1.9,1.9-1.9    c1.1,0,1.9,0.9,1.9,1.9v27.6c0.8-0.1,1.7-0.2,2.5-0.3V98.1C72.1,95.7,70.1,93.7,67.7,93.7z" fill="#62355C"/>
    <path d="M44,93.7c-2.4,0-4.4,2-4.4,4.4V121c0.8,0.4,1.7,0.7,2.5,1V98.1c0-1.1,0.9-1.9,1.9-1.9s1.9,0.9,1.9,1.9    v25.2c0.8,0.3,1.7,0.5,2.5,0.7V98.1C48.4,95.7,46.4,93.7,44,93.7z"
          fill="#62355C"/>
    <path d="M20.3,93.7c-2.4,0-4.4,2-4.4,4.4v5c0.8,1,1.6,1.9,2.5,2.9v-7.9c0-1.1,0.9-1.9,1.9-1.9    c1.1,0,1.9,0.9,1.9,1.9v11.7c0.8,0.7,1.6,1.5,2.5,2.2V98.1C24.7,95.7,22.7,93.7,20.3,93.7z"
          fill="#62355C"/>
    <path d="M97.5,86.1h3.4c2.4,0,4.4-2,4.4-4.4v-9.5c0-2.4-2-4.4-4.4-4.4H2.1c0.1,0.8,0.1,1.7,0.2,2.5h98.5    c1.1,0,1.9,0.9,1.9,1.9v9.5c0,1.1-0.9,1.9-1.9,1.9h-3.4h-1.4H5.2c0.3,0.8,0.6,1.7,0.9,2.5h88.6L90,120.3c0.9-0.4,1.8-0.9,2.7-1.3    l4.5-32.9H97.5z"
          fill="#62355C"/></g></g></svg>