<svg width="91.000000" height="82.000000" viewBox="0 0 91 82" fill="none" xmlns="http://www.w3.org/2000/svg" xmlns:xlink="http://www.w3.org/1999/xlink">
    <defs>
        <clipPath id="clip1_40853">
            <rect id="Frame" rx="0.000000" width="90.000000" height="81.000000" transform="translate(0.500000 0.500000)" fill="white" fill-opacity="0"/>
        </clipPath>
    </defs>
    <rect id="Frame" rx="0.000000" width="90.000000" height="81.000000" transform="translate(0.500000 0.500000)" fill="#FFFFFF" fill-opacity="0"/>
    <g clip-path="url(#clip1_40853)">
        <path id="Vector" d="M91 82L37.9 82L45.18 22.44L83.63 22.44L91 82Z" fill="#FF2D87" fill-opacity="1.000000" fill-rule="nonzero"/>
        <path id="Vector" d="M87.27 82L34.18 82L41.46 22.44L79.99 22.44L87.27 82Z" fill="#FF7CB4" fill-opacity="1.000000" fill-rule="nonzero"/>
        <path id="Vector" d="M48.91 48.37C48.91 45.15 51.04 43.28 53.8 43.28C56.55 43.28 58.59 45.15 58.59 48.46C58.59 51.77 56.46 53.56 53.71 53.56C50.96 53.56 48.91 51.68 48.91 48.37ZM64.54 43.72L68.98 43.81L56.28 61.96L51.84 61.88L64.54 43.72ZM54.95 48.46C54.95 46.67 54.42 46.14 53.8 46.14C53.26 46.14 52.64 46.67 52.64 48.37C52.64 50.16 53.17 50.7 53.8 50.7C54.33 50.79 54.95 50.25 54.95 48.46ZM62.23 57.23C62.23 54.01 64.36 52.13 67.11 52.13C69.87 52.13 71.91 54.01 71.91 57.31C71.91 60.62 69.78 62.41 67.02 62.41C64.27 62.41 62.14 60.44 62.23 57.23ZM68.18 57.23C68.18 55.44 67.65 54.9 67.02 54.9C66.49 54.9 65.87 55.44 65.87 57.14C65.87 58.92 66.4 59.46 67.02 59.46C67.56 59.55 68.18 59.01 68.18 57.23Z" fill="#FF2D87" fill-opacity="1.000000" fill-rule="nonzero"/>
        <path id="Vector" d="M54.06 25.39C54.06 26.37 53.26 27.18 52.29 27.18C51.31 27.18 50.51 26.37 50.51 25.39C50.51 24.41 51.31 23.6 52.29 23.6C53.26 23.6 54.06 24.41 54.06 25.39Z" fill="#2967FF" fill-opacity="1.000000" fill-rule="nonzero"/>
        <path id="Vector" d="M72.62 25.39C72.62 26.37 71.82 27.18 70.84 27.18C69.87 27.18 69.07 26.37 69.07 25.39C69.07 24.41 69.87 23.6 70.84 23.6C71.82 23.6 72.62 24.41 72.62 25.39Z" fill="#2967FF" fill-opacity="1.000000" fill-rule="nonzero"/>
        <path id="Vector" d="M52.29 25.21C51.84 25.21 51.49 24.85 51.58 24.41C51.67 22.53 52.02 17.7 53 12.78C54.77 4.29 57.7 0 61.79 0C65.87 0 68.71 4.29 70.31 12.87C71.2 17.7 71.46 22.62 71.55 24.5C71.55 24.94 71.2 25.3 70.84 25.3C70.4 25.3 70.13 24.94 70.04 24.59C69.87 17.52 68.18 1.6 61.79 1.6C55.39 1.6 53.44 17.52 53.09 24.59C53.09 24.94 52.73 25.21 52.29 25.21Z" fill="#2D2D2F" fill-opacity="1.000000" fill-rule="nonzero"/>
        <path id="Vector" d="M49.45 82L2.75 82L9.14 29.68L43.05 29.68L49.45 82Z" fill="#FFFFFF" fill-opacity="1.000000" fill-rule="nonzero"/>
        <path id="Vector (Stroke)" d="M49.45 82L43.05 29.68L9.14 29.68L2.75 82L49.45 82ZM48.44 81.1L42.27 30.58L9.92 30.58L3.75 81.1L48.44 81.1Z" fill="#2967FF" fill-opacity="1.000000" fill-rule="evenodd"/>
        <path id="Vector" d="M46.69 82L0 82L6.39 29.68L40.3 29.68L46.69 82Z" fill="#FFFFFF" fill-opacity="1.000000" fill-rule="nonzero"/>
        <path id="Vector (Stroke)" d="M46.69 82L40.3 29.68L6.39 29.68L0 82L46.69 82ZM45.69 81.1L39.52 30.58L7.17 30.58L1 81.1L45.69 81.1Z" fill="#2967FF" fill-opacity="1.000000" fill-rule="evenodd"/>
        <path id="Vector" d="M17.48 32.28C17.48 33.17 16.77 33.89 15.89 33.89C15 33.89 14.29 33.17 14.29 32.28C14.29 31.39 15 30.67 15.89 30.67C16.77 30.67 17.48 31.39 17.48 32.28Z" fill="#FFFFFF" fill-opacity="1.000000" fill-rule="evenodd"/>
        <path id="Vector" d="M33.82 32.28C33.82 33.17 33.11 33.89 32.22 33.89C31.33 33.89 30.62 33.17 30.62 32.28C30.62 31.38 31.33 30.67 32.22 30.67C33.11 30.67 33.82 31.38 33.82 32.28Z" fill="#FFFFFF" fill-opacity="1.000000" fill-rule="nonzero"/>
        <path id="Vector" d="M15.98 32.1C15.62 32.1 15.35 31.74 15.35 31.38C15.44 29.77 15.71 25.48 16.6 21.19C18.11 13.68 20.77 9.92 24.32 9.92C27.87 9.92 30.45 13.77 31.87 21.19C32.67 25.48 32.84 29.77 32.93 31.38C32.93 31.74 32.67 32.1 32.31 32.1C31.96 32.1 31.69 31.83 31.6 31.47C31.42 25.3 29.91 11.26 24.41 11.26C18.82 11.26 17.04 25.3 16.77 31.47C16.6 31.83 16.33 32.1 15.98 32.1Z" fill="#2D2D2F" fill-opacity="1.000000" fill-rule="nonzero"/>
        <path id="FREE" d="M11.54 53.65L11.54 60.8L13.53 60.8L13.53 58.14L15.97 58.14L15.97 56.55L13.53 56.55L13.53 55.36L16.52 55.36L16.52 53.65L11.54 53.65ZM17.31 53.65L17.31 60.8L19.3 60.8L19.3 58.61L20.05 58.61L21.33 60.8L23.58 60.8L22.05 58.17C22.37 57.94 22.63 57.65 22.82 57.3Q22.92 57.08 22.99 56.86Q23.09 56.51 23.09 56.13Q23.09 56.07 23.09 56.01L23.09 56.01L23.09 56.01Q23.07 55.61 22.91 55.23C22.78 54.93 22.61 54.66 22.4 54.43C22.18 54.2 21.93 54.01 21.63 53.87C21.33 53.72 21 53.65 20.64 53.65L17.31 53.65ZM29.4 59.09L29.4 60.8L24.22 60.8L24.22 53.65L29.31 53.65L29.31 55.36L26.21 55.36L26.21 56.37L28.85 56.37L28.85 57.96L26.21 57.96L26.21 59.09L29.4 59.09ZM35.51 60.8L35.51 59.09L32.32 59.09L32.32 57.96L34.96 57.96L34.96 56.37L32.32 56.37L32.32 55.36L35.42 55.36L35.42 53.65L30.33 53.65L30.33 60.8L35.51 60.8ZM20.56 56.89L19.3 56.89L19.3 55.36L20.51 55.36C20.63 55.36 20.76 55.43 20.88 55.56Q21.06 55.75 21.06 56.13C21.06 56.37 21.01 56.56 20.9 56.69C20.8 56.83 20.69 56.89 20.56 56.89Z" fill="#2967FF" fill-opacity="1.000000" fill-rule="evenodd"/>
    </g>
</svg>
